<svg viewBox="0 0 203 59" fill="none" xmlns="http://www.w3.org/2000/svg"><g clip-path="url(#a)"><path d="M60.67 23.8a25.42 25.42 0 0 0-8.04-10.37 25.63 25.63 0 0 0-35.71 4.57 25.33 25.33 0 0 0 4.35 35.54 25.63 25.63 0 0 0 12.09 5.18 113.3 113.3 0 0 1-1.69-6.8c1.51.98 3.1 1.83 4.75 2.54 0 0 .12 2.14.28 4.53 1.79.03 3.57-.13 5.32-.47a1.9 1.9 0 0 1 0-.75c.29-1.85 1.09-5.2 1.25-7.35a15.11 15.11 0 0 0 2.89-3.68l-.06.44c-.55 4.22-1.7 8.74-2.4 9.98-.22.42-.5.8-.82 1.15a25.65 25.65 0 0 0 16.92-13.16 25.32 25.32 0 0 0 .87-21.34Zm-1.47 3.77c-.44.42-1.35.71-1.5-.58-.15-1.29-.19-2.2-.19-2.2s-1.92-3.4-2.64-3.43c-.72-.04-5.82 3.44-7.16 4.96-1.17 1.28-1.4 1.19-1.4 3.44 0 1.7.22 8.1.1 13l-8.13 2.15c-2.56.73-5.16 1.3-7.78 1.71l-1-5.78h-.14l-2.57-13.07s-3.8-1.42-5.2-1.81a3.77 3.77 0 0 0-3.98.62 5.03 5.03 0 0 0-1.73 3.82c.21.46.37.95.48 1.44.05.48-1.2.43-2 .43s-.91-1.43-.29-3.1c.5-1.3 1.1-2.54 1.82-3.72a11.78 11.78 0 0 1 2.06-2.86s.14-.34 1.25-.24c1.1.1 7.27.42 7.27.42l.05-2.25c6.69-.92 13.43-1.36 20.19-1.33v1.82a22.58 22.58 0 0 1 8.12-1.98.91.91 0 0 1 .77.38c.34.43 2.4 2.98 2.64 3.34.67.96 1.28 1.95 1.83 2.98a6.17 6.17 0 0 1-.87 1.83Z" fill="#FDC305"/><path d="m57.25 21.5 1 1.27c.67.96 1.28 1.95 1.83 2.98a6.17 6.17 0 0 1-.86 1.77c-.44.42-1.35.71-1.5-.58-.15-1.29-.2-2.14-.2-2.14s-1.93-3.4-2.65-3.44c-.72-.04-5.82 3.44-7.16 4.96-1.17 1.28-1.4 1.19-1.4 3.44 0 1.49.17 6.6.13 11.14 1.8.2 4.46.7 5.26 1.86 0 0-.3-7.12 7.79-3.39 0 0 .28-9.71 11.43-7.22a43.58 43.58 0 0 0-13.67-10.65Zm-10.5-2.3c.04-5.5-.43-11-1.4-16.4 0 0-.15-1.3-.87-.24-.59 1.26-1 2.6-1.2 3.97a71.13 71.13 0 0 0-12.78.33c-.82-2.72-2.22-3.96-2.89-3.64-.67.33-.75 3.26-.75 3.26l-.32 14.04c6.7-.92 13.45-1.36 20.2-1.33Z" fill="#F06351"/><path d="M46.17 46.74c.13-1.06.2-2.47.24-4.03l-8.13 2.16a64.15 64.15 0 0 1-7.78 1.75l1.1 4.96c0 .11 0 .22.07.33 1.51.97 3.1 1.82 4.75 2.53a42.36 42.36 0 0 0 6.87-4.1v.06a15.11 15.11 0 0 0 2.88-3.66Z" fill="#E55645"/><path d="M32.85 16.09c-.05-.1 1 .67 1.4.91.42.24.62.42.62.59 0 .17-.26.33-.62.33s-.92-.11-1-.25c-.08-.14.6 0 .94 0h.29a8.04 8.04 0 0 1-1.63-1.58Zm7.48.11s-1 1.27-1.08 1.33c-.1.06-.17.33.19.29.4-.07.81-.16 1.21-.28.11-.06.07-.2-.12-.18-.19.02-.68.05-1 .1l.85-1.25s.03-.12-.05-.01Zm-3.13 6.06c.46-.2.85-.55 1.09-1 .28-.65 0-.9-.44-.99-.6-.1-1.23.02-1.75.34-.39.37-.34.73 0 1 .34.26.7.48 1.1.65Z" fill="#000"/><path d="M36.84 23.5c-.11.23-.27.44-.46.6-.28.23-.63.36-1 .38-.54.05-1.1-.1-1.53-.44a2 2 0 0 1-.53-.44 1 1 0 0 0-.36-.25s.75 4.08 2.56 4.73c1.82.66 2.16-.75 2.2-1.13a5.56 5.56 0 0 0-.8-3.21c0-.3-.03-.1-.08-.23Z" fill="#F06351"/><path d="M35.15 24.64a3.5 3.5 0 0 1-2.35-1.42.15.15 0 0 1 0-.2.14.14 0 0 1 .15-.03c.02 0 .04.02.05.03a3.2 3.2 0 0 0 2.1 1.3 2.11 2.11 0 0 0 1.64-.99l.14-.19.1.22s.38.75 1 .8c.62.03 1.06-.42 1.62-1.29a.14.14 0 0 1 .24.16c-.66.97-1.29 1.44-1.88 1.4a1.55 1.55 0 0 1-1.12-.72 2.25 2.25 0 0 1-1.7.93Z" fill="#000"/><path d="M37.1 38a3.73 3.73 0 0 0 3.74-3.73 3.73 3.73 0 0 0-3.74-3.72 3.73 3.73 0 0 0-3.74 3.72 3.73 3.73 0 0 0 3.74 3.72Z" fill="#FDC305"/><path d="m42.06 31.25-3.12 1.3 1.14-5.59-7.48 9.68 3.12-1.3-1.14 5.6 7.48-9.7Zm-7.37 3.8 4.15-5.37-.81 3.97 2-.82-4.19 5.38.81-3.97-1.96.8Zm-1.4-1.46a1.12 1.12 0 1 0 0-2.23 1.11 1.11 0 1 0 0 2.22Zm6.51 4.02c.43 0 .78-.35.78-.78a.79.79 0 0 0-.79-.78.79.79 0 0 0-.78.78c0 .43.35.78.78.78Zm.95-2.15c.2 0 .35-.15.35-.35a.34.34 0 0 0-.35-.34c-.2 0-.35.15-.35.34 0 .2.16.35.35.35Z" fill="#111"/><path d="M46.7 20.99a57.14 57.14 0 0 0-5.08 5.17 31.74 31.74 0 0 1-5.3 4.86c-.22-.53-1.62-1.51-1.62-1.51s-3.14-2.13-5.2-3.8a31.74 31.74 0 0 1-3.12-2.98l-2-.11a22.57 22.57 0 0 0 11.97 8.76c.86-.13 3.27-1.85 5.08-3.25a57.36 57.36 0 0 0 5.99-5.86 6.2 6.2 0 0 0 1.13-1.98c-1.13.37-1.85.7-1.85.7Z" fill="#F06351"/><path d="m66 3.47-8.45 9.37-1.21-1.98 8.13-10.86 1.52 3.47Zm-2.57 13.65 5.53-4.08-.78-3.7-5.39 4.77.64 3.01Zm-2.73 31.85 6.12 3.16 3-2.33-6.67-2.72-2.44 1.9Zm-57.83-43.05 3.06-3.33 9.27 8.93-1.22 2.26-11.11-7.86Zm5.42 10.23-4.7-3.1-2.39 3.83 5.14 2.38 1.95-3.11Zm6.51 35.98-4.54 3.32 2.8 3.55 4-3.99-2.26-2.88Z" fill="#FDC305"/><path d="M26.8 27.77s-3.8-1.42-5.2-1.81a3.77 3.77 0 0 0-4 .62 5.03 5.03 0 0 0-1.72 3.82c.21.46.37.95.48 1.44.05.48-1.2.43-2 .43s-.91-1.43-.29-3.1c.5-1.3 1.1-2.54 1.82-3.72-5.44 2.82-14.97 9.33-14.97 9.33a44.6 44.6 0 0 1 8.17.24c5.24.52 5 4.63 5 4.63a38.1 38.1 0 0 1 5.61-1.1c2.12-.14 2.27 2.1 2.27 2.1l.52 3.83c.8-.87 1.7-1.65 2.65-2.34a6.07 6.07 0 0 1 4.37-1.3l-2.72-13.07Z" fill="#F06351"/><path d="M86.35 38.22a7.92 7.92 0 0 1-1.4-5.06v-7.32c-.14-1.8.35-3.6 1.38-5.1.93-1.17 2.51-1.75 4.76-1.74 2.24 0 3.76.52 4.56 1.53a6.43 6.43 0 0 1 1.33 4.38v1.71h-4.15v-1.86c0-.49-.05-.98-.13-1.46a1.62 1.62 0 0 0-.47-.93 1.58 1.58 0 0 0-1.15-.36c-.3-.04-.6 0-.87.14-.27.13-.5.34-.64.6a5.2 5.2 0 0 0-.34 2.14v9.28c-.04.73.1 1.47.4 2.14.14.25.35.45.61.57.26.13.55.18.84.15.28.04.57-.01.82-.14s.45-.34.58-.59c.24-.68.35-1.4.31-2.13v-1.95h4.15v1.69a6.93 6.93 0 0 1-1.23 4.5c-.89 1.06-2.4 1.59-4.57 1.59-2.17 0-3.86-.59-4.8-1.78Zm16.28-18.94h4.75l4 20.48h-3.94l-.71-4.53h-3.33l-.8 4.5h-4l4.03-20.45Zm3.66 13.38-1.27-8.23-1.25 8.23h2.52Zm8.17-10.3h-3.24v-3.08h10.74v3.08h-3.2v17.37h-4.3v-17.37Z" fill="#111"/><path d="M130.39 19.28h8.14v2.13h-5.2v6.75h4.22v2.02h-4.23v7.5h5.26v2.05h-8.2v-20.45Zm10.56 0h2l6.01 13.58v-13.58h2.45v20.48h-1.88l-6-13.96v13.93h-2.5l-.08-20.45Zm13.7 0h8.13v2.13h-5.2v6.75h4.26v2.02h-4.23v7.5h5.23v2.05h-8.2v-20.45Zm10.55 0h4.23a7.16 7.16 0 0 1 4.67 1.28c1 .85 1.5 2.23 1.5 4.15 0 2.6-.87 4.2-2.6 4.77l3 10.25h-2.84l-2.75-9.6h-2.28v9.6h-2.93v-20.45Zm4 8.78a4 4 0 0 0 2.71-.74 3.45 3.45 0 0 0 .82-2.65 5.55 5.55 0 0 0-.29-1.95 1.83 1.83 0 0 0-1-1.05 4.89 4.89 0 0 0-2.05-.34h-1.3v6.77l1.12-.04Zm10.35 10.16a8.82 8.82 0 0 1-1.28-5.22v-6.82c-.03-1.32.14-2.64.5-3.9.3-.96.9-1.79 1.75-2.35a6.05 6.05 0 0 1 3.36-.82 5.4 5.4 0 0 1 4.2 1.44 6.7 6.7 0 0 1 1.28 4.51v.76h-2.76v-.63c.02-.76-.04-1.51-.18-2.26-.1-.48-.36-.9-.76-1.2a3.07 3.07 0 0 0-1.72-.4 2.58 2.58 0 0 0-1.82.55c-.41.38-.69.89-.77 1.44a14 14 0 0 0-.17 2.43v7.6a7.14 7.14 0 0 0 .6 3.36 2.83 2.83 0 0 0 2.25 1.03 2.9 2.9 0 0 0 2.22-1.11c.48-1.13.7-2.35.61-3.56v-1.44h-2.66v-2.02h5.3v10.12h-1.8l-.3-2.35a3.6 3.6 0 0 1-1.4 1.93c-.68.48-1.5.71-2.34.67a4.78 4.78 0 0 1-4.11-1.76Zm16.05-5.71-4.54-13.23h2.72l3.22 9.87 3.17-9.87h2.75l-4.5 13.23v7.22h-2.81l-.01-7.22Z" fill="#444"/></g><defs><clipPath id="a"><path fill="#fff" transform="translate(.924)" d="M0 0h201.86v59h-201.86z"/></clipPath></defs></svg>